<?xml version="1.0" encoding="UTF-8"?>
<!DOCTYPE score-partwise PUBLIC "-//Recordare//DTD MusicXML 3.0 Partwise//EN"
"http://www.musicxml.org/dtds/partwise.dtd">
<score-partwise version="3.0">
<work>
  <work-title>Straight, No Chaser - Thelonious Monk</work-title>
</work>
<identification>
 <encoding>
  <encoding-date>2022-12-18</encoding-date>
  <encoder>Owner</encoder>
  <software>Band-in-a-Box for Windows Version 2021 (838)</software>
  <software>Direct export, not from Dolet</software>
  <encoding-description>Band-in-a-Box for Windows / MusicXML 3.0</encoding-description>
 </encoding>
</identification>
  <part-list>
   <score-part id="P1">
      <part-name>Bass</part-name>
  </score-part>
   <score-part id="P2">
      <part-name>ElecPiano</part-name>
  </score-part>
   <score-part id="P3">
      <part-name>Guitar</part-name>
  </score-part>
   <score-part id="P4">
      <part-name>Piano</part-name>
  </score-part>
  </part-list>
  <part id="P1">
   <measure number="1">
      <attributes>
        <divisions>120</divisions>
        <key>
           <fifths>-1</fifths>
        </key>
        <time>
           <beats>4</beats>
           <beat-type>4</beat-type>
            </time>
        <staves>2</staves>
        <clef number="1">
           <sign>G</sign>
           <line>2</line>
        </clef>
        <clef number="2">
           <sign>F</sign>
           <line>4</line>
        </clef>
      </attributes>
      <sound tempo="220"/>
      <forward>
         <duration>480</duration>
      </forward>
   </measure>
   <measure number="2">
      <forward>
         <duration>480</duration>
      </forward>
   </measure>
   <measure number="3">
      <harmony>
         <root>
         <root-step>F</root-step>
         </root>
         <kind text="7">dominant</kind>
      </harmony>
      <note>
        <rest/>
         <duration>480</duration>
         <voice>1</voice>
         <type>whole</type>
         <staff>1</staff>
      </note>
      <backup>
         <duration>480</duration>
      </backup>
      <note>
        <pitch>
          <step>F</step>
          <octave>1</octave>
        </pitch>
         <duration>240</duration>
         <voice>2</voice>
         <type>half</type>
         <staff>2</staff>
      </note>
      <note>
        <pitch>
          <step>C</step>
          <octave>2</octave>
        </pitch>
         <duration>180</duration>
         <voice>2</voice>
         <type>quarter</type>
         <dot/>
         <staff>2</staff>
      </note>
      <note attack="25" release="-8">
        <pitch>
          <step>F</step>
          <octave>1</octave>
        </pitch>
         <duration>60</duration>
         <voice>2</voice>
         <type>eighth</type>
         <staff>2</staff>
      </note>
   </measure>
   <measure number="4">
      <harmony>
         <root>
         <root-step>B</root-step>
         <root-alter>-1</root-alter>
         </root>
         <kind text="7">dominant</kind>
      </harmony>
      <note>
        <rest/>
         <duration>480</duration>
         <voice>1</voice>
         <type>whole</type>
         <staff>1</staff>
      </note>
      <backup>
         <duration>480</duration>
      </backup>
      <note release="-13">
        <pitch>
          <step>B</step>
          <alter>-1</alter>
          <octave>1</octave>
        </pitch>
         <duration>240</duration>
         <voice>2</voice>
         <type>half</type>
         <staff>2</staff>
      </note>
      <note attack="7" release="-42">
        <pitch>
          <step>F</step>
          <octave>2</octave>
        </pitch>
         <duration>240</duration>
         <voice>2</voice>
         <type>half</type>
         <staff>2</staff>
      </note>
   </measure>
   <measure number="5">
      <harmony>
         <root>
         <root-step>F</root-step>
         </root>
         <kind text="7">dominant</kind>
      </harmony>
      <note>
        <rest/>
         <duration>480</duration>
         <voice>1</voice>
         <type>whole</type>
         <staff>1</staff>
      </note>
      <backup>
         <duration>480</duration>
      </backup>
      <note release="-1">
        <pitch>
          <step>F</step>
          <octave>1</octave>
        </pitch>
         <duration>240</duration>
         <voice>2</voice>
         <type>half</type>
         <staff>2</staff>
      </note>
      <note release="-26">
        <pitch>
          <step>C</step>
          <octave>2</octave>
        </pitch>
         <duration>240</duration>
         <voice>2</voice>
         <type>half</type>
         <staff>2</staff>
      </note>
   </measure>
   <measure number="6">
      <note>
        <rest/>
         <duration>480</duration>
         <voice>1</voice>
         <type>whole</type>
         <staff>1</staff>
      </note>
      <backup>
         <duration>480</duration>
      </backup>
      <note release="-2">
        <pitch>
          <step>F</step>
          <octave>1</octave>
        </pitch>
         <duration>240</duration>
         <voice>2</voice>
         <type>half</type>
         <staff>2</staff>
      </note>
      <note release="-61">
        <pitch>
          <step>C</step>
          <octave>2</octave>
        </pitch>
         <duration>240</duration>
         <voice>2</voice>
         <type>half</type>
         <staff>2</staff>
      </note>
   </measure>
   <measure number="7">
      <harmony>
         <root>
         <root-step>B</root-step>
         <root-alter>-1</root-alter>
         </root>
         <kind text="7">dominant</kind>
      </harmony>
      <note>
        <rest/>
         <duration>480</duration>
         <voice>1</voice>
         <type>whole</type>
         <staff>1</staff>
      </note>
      <backup>
         <duration>480</duration>
      </backup>
      <note>
        <pitch>
          <step>B</step>
          <alter>-1</alter>
          <octave>1</octave>
        </pitch>
         <duration>240</duration>
         <voice>2</voice>
         <type>half</type>
         <staff>2</staff>
      </note>
      <note release="4">
        <pitch>
          <step>F</step>
          <octave>2</octave>
        </pitch>
         <duration>180</duration>
         <voice>2</voice>
         <type>quarter</type>
         <dot/>
         <staff>2</staff>
      </note>
      <note attack="24" release="-2">
        <pitch>
          <step>F</step>
          <octave>2</octave>
        </pitch>
         <duration>60</duration>
         <voice>2</voice>
         <type>eighth</type>
         <staff>2</staff>
      </note>
   </measure>
   <measure number="8">
      <note>
        <rest/>
         <duration>480</duration>
         <voice>1</voice>
         <type>whole</type>
         <staff>1</staff>
      </note>
      <backup>
         <duration>480</duration>
      </backup>
      <note release="-46">
        <pitch>
          <step>B</step>
          <alter>-1</alter>
          <octave>1</octave>
        </pitch>
         <duration>240</duration>
         <voice>2</voice>
         <type>half</type>
         <staff>2</staff>
      </note>
      <note release="-14">
        <pitch>
          <step>F</step>
          <octave>2</octave>
        </pitch>
         <duration>240</duration>
         <voice>2</voice>
         <type>half</type>
         <staff>2</staff>
      </note>
   </measure>
   <measure number="9">
      <harmony>
         <root>
         <root-step>F</root-step>
         </root>
         <kind text="7">dominant</kind>
      </harmony>
      <note>
        <rest/>
         <duration>480</duration>
         <voice>1</voice>
         <type>whole</type>
         <staff>1</staff>
      </note>
      <backup>
         <duration>480</duration>
      </backup>
      <note>
        <pitch>
          <step>F</step>
          <octave>1</octave>
        </pitch>
         <duration>240</duration>
         <voice>2</voice>
         <type>half</type>
         <staff>2</staff>
      </note>
      <note>
        <pitch>
          <step>C</step>
          <octave>2</octave>
        </pitch>
         <duration>180</duration>
         <voice>2</voice>
         <type>quarter</type>
         <dot/>
         <staff>2</staff>
      </note>
      <note attack="25" release="-8">
        <pitch>
          <step>F</step>
          <octave>1</octave>
        </pitch>
         <duration>60</duration>
         <voice>2</voice>
         <type>eighth</type>
         <staff>2</staff>
      </note>
   </measure>
   <measure number="10">
      <harmony>
         <root>
         <root-step>A</root-step>
         </root>
         <kind text="m7">minor-seventh</kind>
      </harmony>
      <note>
        <rest/>
         <duration>480</duration>
         <voice>1</voice>
         <type>whole</type>
         <staff>1</staff>
      </note>
      <harmony>
         <root>
         <root-step>D</root-step>
         </root>
         <kind text="7">dominant</kind>
      <offset>-240</offset>
      </harmony>
      <backup>
         <duration>480</duration>
      </backup>
      <note release="4">
        <pitch>
          <step>A</step>
          <octave>1</octave>
        </pitch>
         <duration>120</duration>
         <voice>2</voice>
         <type>quarter</type>
         <staff>2</staff>
      </note>
      <note release="-12">
        <pitch>
          <step>D</step>
          <alter>1</alter>
          <octave>2</octave>
        </pitch>
         <duration>120</duration>
         <voice>2</voice>
         <type>quarter</type>
        <accidental>sharp</accidental> 
         <staff>2</staff>
      </note>
      <note release="4">
        <pitch>
          <step>D</step>
          <octave>2</octave>
        </pitch>
         <duration>120</duration>
         <voice>2</voice>
         <type>quarter</type>
        <accidental>natural</accidental> 
         <staff>2</staff>
      </note>
      <note release="-12">
        <pitch>
          <step>G</step>
          <alter>1</alter>
          <octave>2</octave>
        </pitch>
         <duration>120</duration>
         <voice>2</voice>
         <type>quarter</type>
        <accidental>sharp</accidental> 
         <staff>2</staff>
      </note>
   </measure>
   <measure number="11">
      <harmony>
         <root>
         <root-step>G</root-step>
         </root>
         <kind text="m7">minor-seventh</kind>
      </harmony>
      <note>
        <rest/>
         <duration>480</duration>
         <voice>1</voice>
         <type>whole</type>
         <staff>1</staff>
      </note>
      <backup>
         <duration>480</duration>
      </backup>
      <note release="-13">
        <pitch>
          <step>G</step>
          <octave>2</octave>
        </pitch>
         <duration>240</duration>
         <voice>2</voice>
         <type>half</type>
         <staff>2</staff>
      </note>
      <note attack="7" release="-42">
        <pitch>
          <step>D</step>
          <octave>2</octave>
        </pitch>
         <duration>240</duration>
         <voice>2</voice>
         <type>half</type>
         <staff>2</staff>
      </note>
   </measure>
   <measure number="12">
      <harmony>
         <root>
         <root-step>C</root-step>
         </root>
         <kind text="7">dominant</kind>
      </harmony>
      <note>
        <rest/>
         <duration>480</duration>
         <voice>1</voice>
         <type>whole</type>
         <staff>1</staff>
      </note>
      <backup>
         <duration>480</duration>
      </backup>
      <note release="1">
        <pitch>
          <step>C</step>
          <octave>2</octave>
        </pitch>
         <duration>180</duration>
         <voice>2</voice>
         <type>quarter</type>
         <dot/>
         <staff>2</staff>
      </note>
      <note attack="21">
        <pitch>
          <step>G</step>
          <octave>2</octave>
        </pitch>
         <duration>60</duration>
         <voice>2</voice>
         <type>eighth</type>
         <staff>2</staff>
      </note>
      <note release="-29">
        <pitch>
          <step>C</step>
          <octave>3</octave>
        </pitch>
         <duration>60</duration>
         <voice>2</voice>
         <type>eighth</type>
         <staff>2</staff>
         <beam number="1">begin</beam>
      </note>
      <note attack="20">
        <pitch>
          <step>G</step>
          <octave>2</octave>
        </pitch>
         <duration>60</duration>
         <voice>2</voice>
         <type>eighth</type>
         <staff>2</staff>
         <beam number="1">end</beam>
      </note>
      <note release="-32">
        <pitch>
          <step>C</step>
          <octave>2</octave>
        </pitch>
         <duration>120</duration>
         <voice>2</voice>
         <type>quarter</type>
         <staff>2</staff>
      </note>
   </measure>
   <measure number="13">
      <harmony>
         <root>
         <root-step>F</root-step>
         </root>
         <kind text="7">dominant</kind>
      </harmony>
      <note>
        <rest/>
         <duration>480</duration>
         <voice>1</voice>
         <type>whole</type>
         <staff>1</staff>
      </note>
      <backup>
         <duration>480</duration>
      </backup>
      <note attack="4" release="-16">
        <pitch>
          <step>F</step>
          <octave>2</octave>
        </pitch>
         <duration>240</duration>
         <voice>2</voice>
         <type>half</type>
         <staff>2</staff>
      </note>
      <note attack="6" release="-8">
        <pitch>
          <step>C</step>
          <octave>2</octave>
        </pitch>
         <duration>180</duration>
         <voice>2</voice>
         <type>quarter</type>
         <dot/>
         <staff>2</staff>
      </note>
      <note attack="25" release="-11">
        <pitch>
          <step>G</step>
          <alter>-1</alter>
          <octave>2</octave>
        </pitch>
         <duration>60</duration>
         <voice>2</voice>
         <type>eighth</type>
        <accidental>flat</accidental> 
         <staff>2</staff>
      </note>
   </measure>
   <measure number="14">
      <note>
        <rest/>
         <duration>480</duration>
         <voice>1</voice>
         <type>whole</type>
         <staff>1</staff>
      </note>
      <backup>
         <duration>480</duration>
      </backup>
      <note>
        <pitch>
          <step>F</step>
          <octave>2</octave>
        </pitch>
         <duration>240</duration>
         <voice>2</voice>
         <type>half</type>
         <staff>2</staff>
      </note>
      <note>
        <pitch>
          <step>C</step>
          <octave>3</octave>
        </pitch>
         <duration>240</duration>
         <voice>2</voice>
         <type>half</type>
         <staff>2</staff>
      </note>
  </measure>
  </part>
  <part id="P2">
   <measure number="1">
      <attributes>
        <divisions>120</divisions>
        <key>
           <fifths>-1</fifths>
        </key>
        <time>
           <beats>4</beats>
           <beat-type>4</beat-type>
            </time>
        <staves>2</staves>
        <clef number="1">
           <sign>G</sign>
           <line>2</line>
        </clef>
        <clef number="2">
           <sign>F</sign>
           <line>4</line>
        </clef>
      </attributes>
      <sound tempo="220"/>
      <forward>
         <duration>480</duration>
      </forward>
   </measure>
   <measure number="2">
      <forward>
         <duration>480</duration>
      </forward>
   </measure>
   <measure number="3">
      <harmony>
         <root>
         <root-step>F</root-step>
         </root>
         <kind text="7">dominant</kind>
      </harmony>
      <note attack="2" release="11">
        <pitch>
          <step>C</step>
          <octave>5</octave>
        </pitch>
         <duration>180</duration>
         <voice>1</voice>
         <type>quarter</type>
         <dot/>
         <staff>1</staff>
      </note>
      <note attack="2" release="11">
        <chord/>
        <pitch>
          <step>F</step>
          <octave>4</octave>
        </pitch>
         <duration>180</duration>
         <voice>1</voice>
         <type>quarter</type>
         <dot/>
         <staff>1</staff>
      </note>
      <note attack="2" release="11">
        <chord/>
        <pitch>
          <step>E</step>
          <alter>-1</alter>
          <octave>4</octave>
        </pitch>
         <duration>180</duration>
         <voice>1</voice>
         <type>quarter</type>
         <dot/>
        <accidental>flat</accidental> 
         <staff>1</staff>
      </note>
      <note attack="26">
        <pitch>
          <step>C</step>
          <octave>5</octave>
        </pitch>
         <duration>60</duration>
         <tie type="start"/>
         <voice>1</voice>
         <type>eighth</type>
         <staff>1</staff>
         <notations>
          <tied type="start"/>
          </notations>
      </note>
      <note attack="26">
        <chord/>
        <pitch>
          <step>F</step>
          <octave>4</octave>
        </pitch>
         <duration>60</duration>
         <tie type="start"/>
         <voice>1</voice>
         <type>eighth</type>
         <staff>1</staff>
         <notations>
          <tied type="start"/>
          </notations>
      </note>
      <note attack="26">
        <chord/>
        <pitch>
          <step>E</step>
          <alter>-1</alter>
          <octave>4</octave>
        </pitch>
         <duration>60</duration>
         <tie type="start"/>
         <voice>1</voice>
         <type>eighth</type>
         <staff>1</staff>
         <notations>
          <tied type="start"/>
          </notations>
      </note>
      <note release="-189">
        <pitch>
          <step>C</step>
          <octave>5</octave>
        </pitch>
         <duration>180</duration>
         <tie type="stop"/>
         <voice>1</voice>
         <type>quarter</type>
         <dot/>
         <staff>1</staff>
         <notations>
           <tied type="stop"/>
          </notations>
      </note>
      <note release="-189">
        <chord/>
        <pitch>
          <step>F</step>
          <octave>4</octave>
        </pitch>
         <duration>180</duration>
         <tie type="stop"/>
         <voice>1</voice>
         <type>quarter</type>
         <dot/>
         <staff>1</staff>
         <notations>
           <tied type="stop"/>
          </notations>
      </note>
      <note release="-189">
        <chord/>
        <pitch>
          <step>E</step>
          <alter>-1</alter>
          <octave>4</octave>
        </pitch>
         <duration>180</duration>
         <tie type="stop"/>
         <voice>1</voice>
         <type>quarter</type>
         <dot/>
         <staff>1</staff>
         <notations>
           <tied type="stop"/>
          </notations>
      </note>
      <note attack="30">
        <pitch>
          <step>F</step>
          <octave>4</octave>
        </pitch>
         <duration>60</duration>
         <tie type="start"/>
         <voice>1</voice>
         <type>eighth</type>
         <staff>1</staff>
         <notations>
          <tied type="start"/>
          </notations>
      </note>
      <note attack="30">
        <chord/>
        <pitch>
          <step>D</step>
          <octave>4</octave>
        </pitch>
         <duration>60</duration>
         <tie type="start"/>
         <voice>1</voice>
         <type>eighth</type>
         <staff>1</staff>
         <notations>
          <tied type="start"/>
          </notations>
      </note>
      <note attack="30">
        <chord/>
        <pitch>
          <step>B</step>
          <alter>-1</alter>
          <octave>3</octave>
        </pitch>
         <duration>60</duration>
         <tie type="start"/>
         <voice>1</voice>
         <type>eighth</type>
         <staff>1</staff>
         <notations>
          <tied type="start"/>
          </notations>
      </note>
      <backup>
         <duration>480</duration>
      </backup>
      <note attack="2" release="11">
        <pitch>
          <step>A</step>
          <octave>3</octave>
        </pitch>
         <duration>180</duration>
         <voice>2</voice>
         <type>quarter</type>
         <dot/>
         <staff>2</staff>
      </note>
      <note attack="26">
        <pitch>
          <step>A</step>
          <octave>3</octave>
        </pitch>
         <duration>60</duration>
         <tie type="start"/>
         <voice>2</voice>
         <type>eighth</type>
         <staff>2</staff>
         <notations>
          <tied type="start"/>
          </notations>
      </note>
      <note release="-189">
        <pitch>
          <step>A</step>
          <octave>3</octave>
        </pitch>
         <duration>180</duration>
         <tie type="stop"/>
         <voice>2</voice>
         <type>quarter</type>
         <dot/>
         <staff>2</staff>
         <notations>
           <tied type="stop"/>
          </notations>
      </note>
      <note attack="30">
        <pitch>
          <step>A</step>
          <alter>-1</alter>
          <octave>3</octave>
        </pitch>
         <duration>60</duration>
         <tie type="start"/>
         <voice>2</voice>
         <type>eighth</type>
        <accidental>flat</accidental> 
         <staff>2</staff>
         <notations>
          <tied type="start"/>
          </notations>
      </note>
   </measure>
   <measure number="4">
      <harmony>
         <root>
         <root-step>B</root-step>
         <root-alter>-1</root-alter>
         </root>
         <kind text="7">dominant</kind>
      </harmony>
      <note release="-9">
        <pitch>
          <step>F</step>
          <octave>4</octave>
        </pitch>
         <duration>480</duration>
         <tie type="stop"/>
         <voice>1</voice>
         <type>whole</type>
         <staff>1</staff>
         <notations>
           <tied type="stop"/>
          </notations>
      </note>
      <note release="-9">
        <chord/>
        <pitch>
          <step>D</step>
          <octave>4</octave>
        </pitch>
         <duration>480</duration>
         <tie type="stop"/>
         <voice>1</voice>
         <type>whole</type>
         <staff>1</staff>
         <notations>
           <tied type="stop"/>
          </notations>
      </note>
      <note release="-9">
        <chord/>
        <pitch>
          <step>B</step>
          <alter>-1</alter>
          <octave>3</octave>
        </pitch>
         <duration>480</duration>
         <tie type="stop"/>
         <voice>1</voice>
         <type>whole</type>
         <staff>1</staff>
         <notations>
           <tied type="stop"/>
          </notations>
      </note>
      <backup>
         <duration>480</duration>
      </backup>
      <note release="-9">
        <pitch>
          <step>A</step>
          <alter>-1</alter>
          <octave>3</octave>
        </pitch>
         <duration>480</duration>
         <tie type="stop"/>
         <voice>2</voice>
         <type>whole</type>
         <staff>2</staff>
         <notations>
           <tied type="stop"/>
          </notations>
      </note>
   </measure>
   <measure number="5">
      <harmony>
         <root>
         <root-step>F</root-step>
         </root>
         <kind text="7">dominant</kind>
      </harmony>
      <note release="-156">
        <pitch>
          <step>A</step>
          <octave>4</octave>
        </pitch>
         <duration>180</duration>
         <voice>1</voice>
         <type>quarter</type>
         <dot/>
         <staff>1</staff>
      </note>
      <note release="-156">
        <chord/>
        <pitch>
          <step>F</step>
          <octave>4</octave>
        </pitch>
         <duration>180</duration>
         <voice>1</voice>
         <type>quarter</type>
         <dot/>
         <staff>1</staff>
      </note>
      <note release="-156">
        <chord/>
        <pitch>
          <step>E</step>
          <alter>-1</alter>
          <octave>4</octave>
        </pitch>
         <duration>180</duration>
         <voice>1</voice>
         <type>quarter</type>
         <dot/>
        <accidental>flat</accidental> 
         <staff>1</staff>
      </note>
      <note release="-156">
        <chord/>
        <pitch>
          <step>C</step>
          <octave>4</octave>
        </pitch>
         <duration>180</duration>
         <voice>1</voice>
         <type>quarter</type>
         <dot/>
         <staff>1</staff>
      </note>
      <note attack="27" release="-7">
        <pitch>
          <step>A</step>
          <octave>4</octave>
        </pitch>
         <duration>60</duration>
         <voice>1</voice>
         <type>eighth</type>
         <staff>1</staff>
      </note>
      <note attack="27" release="-7">
        <chord/>
        <pitch>
          <step>F</step>
          <octave>4</octave>
        </pitch>
         <duration>60</duration>
         <voice>1</voice>
         <type>eighth</type>
         <staff>1</staff>
      </note>
      <note attack="27" release="-7">
        <chord/>
        <pitch>
          <step>E</step>
          <alter>-1</alter>
          <octave>4</octave>
        </pitch>
         <duration>60</duration>
         <voice>1</voice>
         <type>eighth</type>
         <staff>1</staff>
      </note>
      <note attack="27" release="-7">
        <chord/>
        <pitch>
          <step>C</step>
          <octave>4</octave>
        </pitch>
         <duration>60</duration>
         <voice>1</voice>
         <type>eighth</type>
         <staff>1</staff>
      </note>
      <note>
        <rest/>
         <duration>240</duration>
         <voice>1</voice>
         <type>half</type>
         <staff>1</staff>
      </note>
      <backup>
         <duration>480</duration>
      </backup>
      <note attack="6" release="-112">
        <pitch>
          <step>F</step>
          <octave>2</octave>
        </pitch>
         <duration>480</duration>
         <voice>2</voice>
         <type>whole</type>
         <staff>2</staff>
      </note>
   </measure>
   <measure number="6">
      <note attack="4" release="-130">
        <pitch>
          <step>A</step>
          <octave>4</octave>
        </pitch>
         <duration>180</duration>
         <voice>1</voice>
         <type>quarter</type>
         <dot/>
         <staff>1</staff>
      </note>
      <note attack="4" release="-130">
        <chord/>
        <pitch>
          <step>F</step>
          <octave>4</octave>
        </pitch>
         <duration>180</duration>
         <voice>1</voice>
         <type>quarter</type>
         <dot/>
         <staff>1</staff>
      </note>
      <note attack="4" release="-130">
        <chord/>
        <pitch>
          <step>E</step>
          <alter>-1</alter>
          <octave>4</octave>
        </pitch>
         <duration>180</duration>
         <voice>1</voice>
         <type>quarter</type>
         <dot/>
        <accidental>flat</accidental> 
         <staff>1</staff>
      </note>
      <note attack="4" release="-130">
        <chord/>
        <pitch>
          <step>C</step>
          <octave>4</octave>
        </pitch>
         <duration>180</duration>
         <voice>1</voice>
         <type>quarter</type>
         <dot/>
         <staff>1</staff>
      </note>
      <note attack="27" release="8">
        <pitch>
          <step>A</step>
          <octave>4</octave>
        </pitch>
         <duration>60</duration>
         <voice>1</voice>
         <type>eighth</type>
         <staff>1</staff>
      </note>
      <note attack="27" release="8">
        <chord/>
        <pitch>
          <step>F</step>
          <octave>4</octave>
        </pitch>
         <duration>60</duration>
         <voice>1</voice>
         <type>eighth</type>
         <staff>1</staff>
      </note>
      <note attack="27" release="8">
        <chord/>
        <pitch>
          <step>E</step>
          <alter>-1</alter>
          <octave>4</octave>
        </pitch>
         <duration>60</duration>
         <voice>1</voice>
         <type>eighth</type>
         <staff>1</staff>
      </note>
      <note attack="27" release="8">
        <chord/>
        <pitch>
          <step>C</step>
          <octave>4</octave>
        </pitch>
         <duration>60</duration>
         <voice>1</voice>
         <type>eighth</type>
         <staff>1</staff>
      </note>
      <note>
        <rest/>
         <duration>240</duration>
         <voice>1</voice>
         <type>half</type>
         <staff>1</staff>
      </note>
      <backup>
         <duration>480</duration>
      </backup>
      <note attack="9" release="-125">
        <pitch>
          <step>F</step>
          <octave>2</octave>
        </pitch>
         <duration>180</duration>
         <voice>2</voice>
         <type>quarter</type>
         <dot/>
         <staff>2</staff>
      </note>
      <note attack="30">
        <pitch>
          <step>F</step>
          <octave>2</octave>
        </pitch>
         <duration>60</duration>
         <tie type="start"/>
         <voice>2</voice>
         <type>eighth</type>
         <staff>2</staff>
         <notations>
          <tied type="start"/>
          </notations>
      </note>
      <note release="-44">
        <pitch>
          <step>F</step>
          <octave>2</octave>
        </pitch>
         <duration>60</duration>
         <tie type="stop"/>
         <voice>2</voice>
         <type>eighth</type>
         <staff>2</staff>
         <beam number="1">begin</beam>
         <notations>
           <tied type="stop"/>
          </notations>
      </note>
      <note attack="27" release="3">
        <pitch>
          <step>C</step>
          <octave>2</octave>
        </pitch>
         <duration>60</duration>
         <voice>2</voice>
         <type>eighth</type>
         <staff>2</staff>
         <beam number="1">end</beam>
      </note>
      <note attack="3" release="-50">
        <pitch>
          <step>F</step>
          <octave>2</octave>
        </pitch>
         <duration>120</duration>
         <voice>2</voice>
         <type>quarter</type>
         <staff>2</staff>
      </note>
   </measure>
   <measure number="7">
      <harmony>
         <root>
         <root-step>B</root-step>
         <root-alter>-1</root-alter>
         </root>
         <kind text="7">dominant</kind>
      </harmony>
      <note release="-156">
        <pitch>
          <step>B</step>
          <alter>-1</alter>
          <octave>4</octave>
        </pitch>
         <duration>180</duration>
         <voice>1</voice>
         <type>quarter</type>
         <dot/>
         <staff>1</staff>
      </note>
      <note release="-156">
        <chord/>
        <pitch>
          <step>A</step>
          <alter>-1</alter>
          <octave>4</octave>
        </pitch>
         <duration>180</duration>
         <voice>1</voice>
         <type>quarter</type>
         <dot/>
        <accidental>flat</accidental> 
         <staff>1</staff>
      </note>
      <note release="-156">
        <chord/>
        <pitch>
          <step>F</step>
          <octave>4</octave>
        </pitch>
         <duration>180</duration>
         <voice>1</voice>
         <type>quarter</type>
         <dot/>
         <staff>1</staff>
      </note>
      <note release="-156">
        <chord/>
        <pitch>
          <step>D</step>
          <octave>4</octave>
        </pitch>
         <duration>180</duration>
         <voice>1</voice>
         <type>quarter</type>
         <dot/>
         <staff>1</staff>
      </note>
      <note attack="27" release="-7">
        <pitch>
          <step>B</step>
          <alter>-1</alter>
          <octave>4</octave>
        </pitch>
         <duration>60</duration>
         <voice>1</voice>
         <type>eighth</type>
         <staff>1</staff>
      </note>
      <note attack="27" release="-7">
        <chord/>
        <pitch>
          <step>A</step>
          <alter>-1</alter>
          <octave>4</octave>
        </pitch>
         <duration>60</duration>
         <voice>1</voice>
         <type>eighth</type>
         <staff>1</staff>
      </note>
      <note attack="27" release="-7">
        <chord/>
        <pitch>
          <step>F</step>
          <octave>4</octave>
        </pitch>
         <duration>60</duration>
         <voice>1</voice>
         <type>eighth</type>
         <staff>1</staff>
      </note>
      <note attack="27" release="-7">
        <chord/>
        <pitch>
          <step>D</step>
          <octave>4</octave>
        </pitch>
         <duration>60</duration>
         <voice>1</voice>
         <type>eighth</type>
         <staff>1</staff>
      </note>
      <note>
        <rest/>
         <duration>240</duration>
         <voice>1</voice>
         <type>half</type>
         <staff>1</staff>
      </note>
      <backup>
         <duration>480</duration>
      </backup>
      <note attack="6" release="-112">
        <pitch>
          <step>B</step>
          <alter>-1</alter>
          <octave>2</octave>
        </pitch>
         <duration>480</duration>
         <voice>2</voice>
         <type>whole</type>
         <staff>2</staff>
      </note>
   </measure>
   <measure number="8">
      <note attack="4" release="-130">
        <pitch>
          <step>B</step>
          <alter>-1</alter>
          <octave>4</octave>
        </pitch>
         <duration>180</duration>
         <voice>1</voice>
         <type>quarter</type>
         <dot/>
         <staff>1</staff>
      </note>
      <note attack="4" release="-130">
        <chord/>
        <pitch>
          <step>A</step>
          <alter>-1</alter>
          <octave>4</octave>
        </pitch>
         <duration>180</duration>
         <voice>1</voice>
         <type>quarter</type>
         <dot/>
        <accidental>flat</accidental> 
         <staff>1</staff>
      </note>
      <note attack="4" release="-130">
        <chord/>
        <pitch>
          <step>F</step>
          <octave>4</octave>
        </pitch>
         <duration>180</duration>
         <voice>1</voice>
         <type>quarter</type>
         <dot/>
         <staff>1</staff>
      </note>
      <note attack="4" release="-130">
        <chord/>
        <pitch>
          <step>D</step>
          <octave>4</octave>
        </pitch>
         <duration>180</duration>
         <voice>1</voice>
         <type>quarter</type>
         <dot/>
         <staff>1</staff>
      </note>
      <note attack="27" release="8">
        <pitch>
          <step>B</step>
          <alter>-1</alter>
          <octave>4</octave>
        </pitch>
         <duration>60</duration>
         <voice>1</voice>
         <type>eighth</type>
         <staff>1</staff>
      </note>
      <note attack="27" release="8">
        <chord/>
        <pitch>
          <step>A</step>
          <alter>-1</alter>
          <octave>4</octave>
        </pitch>
         <duration>60</duration>
         <voice>1</voice>
         <type>eighth</type>
         <staff>1</staff>
      </note>
      <note attack="27" release="8">
        <chord/>
        <pitch>
          <step>F</step>
          <octave>4</octave>
        </pitch>
         <duration>60</duration>
         <voice>1</voice>
         <type>eighth</type>
         <staff>1</staff>
      </note>
      <note attack="27" release="8">
        <chord/>
        <pitch>
          <step>D</step>
          <octave>4</octave>
        </pitch>
         <duration>60</duration>
         <voice>1</voice>
         <type>eighth</type>
         <staff>1</staff>
      </note>
      <note>
        <rest/>
         <duration>240</duration>
         <voice>1</voice>
         <type>half</type>
         <staff>1</staff>
      </note>
      <backup>
         <duration>480</duration>
      </backup>
      <note attack="9" release="-125">
        <pitch>
          <step>B</step>
          <alter>-1</alter>
          <octave>2</octave>
        </pitch>
         <duration>180</duration>
         <voice>2</voice>
         <type>quarter</type>
         <dot/>
         <staff>2</staff>
      </note>
      <note attack="30">
        <pitch>
          <step>B</step>
          <alter>-1</alter>
          <octave>2</octave>
        </pitch>
         <duration>60</duration>
         <tie type="start"/>
         <voice>2</voice>
         <type>eighth</type>
         <staff>2</staff>
         <notations>
          <tied type="start"/>
          </notations>
      </note>
      <note release="-44">
        <pitch>
          <step>B</step>
          <alter>-1</alter>
          <octave>2</octave>
        </pitch>
         <duration>60</duration>
         <tie type="stop"/>
         <voice>2</voice>
         <type>eighth</type>
         <staff>2</staff>
         <beam number="1">begin</beam>
         <notations>
           <tied type="stop"/>
          </notations>
      </note>
      <note attack="27" release="3">
        <pitch>
          <step>F</step>
          <octave>2</octave>
        </pitch>
         <duration>60</duration>
         <voice>2</voice>
         <type>eighth</type>
         <staff>2</staff>
         <beam number="1">end</beam>
      </note>
      <note attack="3" release="-50">
        <pitch>
          <step>B</step>
          <alter>-1</alter>
          <octave>2</octave>
        </pitch>
         <duration>120</duration>
         <voice>2</voice>
         <type>quarter</type>
         <staff>2</staff>
      </note>
   </measure>
   <measure number="9">
      <harmony>
         <root>
         <root-step>F</root-step>
         </root>
         <kind text="7">dominant</kind>
      </harmony>
      <note attack="2" release="-7">
        <pitch>
          <step>C</step>
          <octave>5</octave>
        </pitch>
         <duration>480</duration>
         <voice>1</voice>
         <type>whole</type>
         <staff>1</staff>
      </note>
      <note attack="2" release="-7">
        <chord/>
        <pitch>
          <step>F</step>
          <octave>4</octave>
        </pitch>
         <duration>480</duration>
         <voice>1</voice>
         <type>whole</type>
         <staff>1</staff>
      </note>
      <note attack="2" release="-7">
        <chord/>
        <pitch>
          <step>E</step>
          <alter>-1</alter>
          <octave>4</octave>
        </pitch>
         <duration>480</duration>
         <voice>1</voice>
         <type>whole</type>
        <accidental>flat</accidental> 
         <staff>1</staff>
      </note>
      <backup>
         <duration>480</duration>
      </backup>
      <note attack="2" release="-7">
        <pitch>
          <step>A</step>
          <octave>3</octave>
        </pitch>
         <duration>480</duration>
         <voice>2</voice>
         <type>whole</type>
         <staff>2</staff>
      </note>
   </measure>
   <measure number="10">
      <harmony>
         <root>
         <root-step>A</root-step>
         </root>
         <kind text="m7">minor-seventh</kind>
      </harmony>
      <note release="-20">
        <pitch>
          <step>A</step>
          <octave>4</octave>
        </pitch>
         <duration>240</duration>
         <voice>1</voice>
         <type>half</type>
        <accidental cautionary="yes">natural</accidental> 
         <staff>1</staff>
      </note>
      <note release="-20">
        <chord/>
        <pitch>
          <step>E</step>
          <octave>4</octave>
        </pitch>
         <duration>240</duration>
         <voice>1</voice>
         <type>half</type>
        <accidental cautionary="yes">natural</accidental> 
         <staff>1</staff>
      </note>
      <note release="-20">
        <chord/>
        <pitch>
          <step>C</step>
          <octave>4</octave>
        </pitch>
         <duration>240</duration>
         <voice>1</voice>
         <type>half</type>
         <staff>1</staff>
      </note>
      <harmony>
         <root>
         <root-step>D</root-step>
         </root>
         <kind text="7">dominant</kind>
      </harmony>
      <note release="-20">
        <pitch>
          <step>A</step>
          <octave>4</octave>
        </pitch>
         <duration>240</duration>
         <voice>1</voice>
         <type>half</type>
         <staff>1</staff>
      </note>
      <note release="-20">
        <chord/>
        <pitch>
          <step>D</step>
          <octave>4</octave>
        </pitch>
         <duration>240</duration>
         <voice>1</voice>
         <type>half</type>
         <staff>1</staff>
      </note>
      <note release="-20">
        <chord/>
        <pitch>
          <step>C</step>
          <octave>4</octave>
        </pitch>
         <duration>240</duration>
         <voice>1</voice>
         <type>half</type>
         <staff>1</staff>
      </note>
      <backup>
         <duration>480</duration>
      </backup>
      <note attack="1" release="-14">
        <pitch>
          <step>A</step>
          <octave>2</octave>
        </pitch>
         <duration>240</duration>
         <voice>2</voice>
         <type>half</type>
         <staff>2</staff>
      </note>
      <note release="-20">
        <chord/>
        <pitch>
          <step>G</step>
          <octave>3</octave>
        </pitch>
         <duration>240</duration>
         <voice>2</voice>
         <type>half</type>
         <staff>2</staff>
      </note>
      <note attack="1" release="-14">
        <pitch>
          <step>D</step>
          <octave>3</octave>
        </pitch>
         <duration>240</duration>
         <voice>2</voice>
         <type>half</type>
         <staff>2</staff>
      </note>
      <note release="-20">
        <chord/>
        <pitch>
          <step>F</step>
          <alter>1</alter>
          <octave>3</octave>
        </pitch>
         <duration>240</duration>
         <voice>2</voice>
         <type>half</type>
        <accidental>sharp</accidental> 
         <staff>2</staff>
      </note>
   </measure>
   <measure number="11">
      <harmony>
         <root>
         <root-step>G</root-step>
         </root>
         <kind text="m7">minor-seventh</kind>
      </harmony>
      <note>
        <rest/>
         <duration>120</duration>
         <voice>1</voice>
         <type>quarter</type>
         <staff>1</staff>
      </note>
      <note attack="10" release="-25">
        <pitch>
          <step>G</step>
          <octave>4</octave>
        </pitch>
         <duration>60</duration>
         <voice>1</voice>
         <type>eighth</type>
         <staff>1</staff>
         <beam number="1">begin</beam>
      </note>
      <note attack="13" release="39">
        <chord/>
        <pitch>
          <step>C</step>
          <octave>5</octave>
        </pitch>
         <duration>60</duration>
         <voice>1</voice>
         <type>eighth</type>
         <staff>1</staff>
         <beam number="1">begin</beam>
      </note>
      <note attack="10" release="17">
        <chord/>
        <pitch>
          <step>E</step>
          <octave>5</octave>
        </pitch>
         <duration>60</duration>
         <voice>1</voice>
         <type>eighth</type>
         <staff>1</staff>
         <beam number="1">begin</beam>
      </note>
      <note attack="31">
        <pitch>
          <step>B</step>
          <alter>-1</alter>
          <octave>4</octave>
        </pitch>
         <duration>60</duration>
         <tie type="start"/>
         <voice>1</voice>
         <type>eighth</type>
         <staff>1</staff>
         <beam number="1">end</beam>
         <notations>
          <tied type="start"/>
          </notations>
      </note>
      <note attack="28">
        <chord/>
        <pitch>
          <step>D</step>
          <octave>5</octave>
        </pitch>
         <duration>60</duration>
         <tie type="start"/>
         <voice>1</voice>
         <type>eighth</type>
         <staff>1</staff>
         <beam number="1">end</beam>
         <notations>
          <tied type="start"/>
          </notations>
      </note>
      <note release="28">
        <pitch>
          <step>B</step>
          <alter>-1</alter>
          <octave>4</octave>
        </pitch>
         <duration>120</duration>
         <tie type="stop"/>
         <voice>1</voice>
         <type>quarter</type>
         <staff>1</staff>
         <notations>
           <tied type="stop"/>
          </notations>
      </note>
      <note release="28">
        <chord/>
        <pitch>
          <step>D</step>
          <octave>5</octave>
        </pitch>
         <duration>120</duration>
         <tie type="stop"/>
         <voice>1</voice>
         <type>quarter</type>
         <staff>1</staff>
         <notations>
           <tied type="stop"/>
          </notations>
      </note>
      <note>
        <rest/>
         <duration>120</duration>
         <voice>1</voice>
         <type>quarter</type>
         <staff>1</staff>
      </note>
      <backup>
         <duration>480</duration>
      </backup>
      <note>
        <rest/>
         <duration>60</duration>
         <voice>2</voice>
         <type>eighth</type>
         <staff>2</staff>
      </note>
      <note attack="33" release="24">
        <pitch>
          <step>A</step>
          <octave>3</octave>
        </pitch>
         <duration>60</duration>
         <voice>2</voice>
         <type>eighth</type>
         <staff>2</staff>
      </note>
      <note attack="13" release="23">
        <pitch>
          <step>D</step>
          <octave>4</octave>
        </pitch>
         <duration>60</duration>
         <voice>2</voice>
         <type>eighth</type>
         <staff>2</staff>
         <beam number="1">begin</beam>
      </note>
      <note attack="28">
        <pitch>
          <step>G</step>
          <octave>3</octave>
        </pitch>
         <duration>60</duration>
         <tie type="start"/>
         <voice>2</voice>
         <type>eighth</type>
         <staff>2</staff>
         <beam number="1">end</beam>
         <notations>
          <tied type="start"/>
          </notations>
      </note>
      <note attack="28">
        <chord/>
        <pitch>
          <step>C</step>
          <octave>4</octave>
        </pitch>
         <duration>60</duration>
         <tie type="start"/>
         <voice>2</voice>
         <type>eighth</type>
         <staff>2</staff>
         <beam number="1">end</beam>
         <notations>
          <tied type="start"/>
          </notations>
      </note>
      <note attack="31">
        <chord/>
        <pitch>
          <step>F</step>
          <octave>4</octave>
        </pitch>
         <duration>60</duration>
         <tie type="start"/>
         <voice>2</voice>
         <type>eighth</type>
         <staff>2</staff>
         <beam number="1">end</beam>
         <notations>
          <tied type="start"/>
          </notations>
      </note>
      <note release="25">
        <pitch>
          <step>G</step>
          <octave>3</octave>
        </pitch>
         <duration>120</duration>
         <tie type="stop"/>
         <voice>2</voice>
         <type>quarter</type>
         <staff>2</staff>
         <notations>
           <tied type="stop"/>
          </notations>
      </note>
      <note release="28">
        <chord/>
        <pitch>
          <step>C</step>
          <octave>4</octave>
        </pitch>
         <duration>120</duration>
         <tie type="stop"/>
         <voice>2</voice>
         <type>quarter</type>
         <staff>2</staff>
         <notations>
           <tied type="stop"/>
          </notations>
      </note>
      <note release="28">
        <chord/>
        <pitch>
          <step>F</step>
          <octave>4</octave>
        </pitch>
         <duration>120</duration>
         <tie type="stop"/>
         <voice>2</voice>
         <type>quarter</type>
         <staff>2</staff>
         <notations>
           <tied type="stop"/>
          </notations>
      </note>
      <note>
        <rest/>
         <duration>120</duration>
         <voice>2</voice>
         <type>quarter</type>
         <staff>2</staff>
      </note>
   </measure>
   <measure number="12">
      <harmony>
         <root>
         <root-step>C</root-step>
         </root>
         <kind text="7">dominant</kind>
      </harmony>
      <note>
        <rest/>
         <duration>240</duration>
         <voice>1</voice>
         <type>half</type>
         <staff>1</staff>
      </note>
      <note attack="5" release="-5">
        <pitch>
          <step>G</step>
          <octave>4</octave>
        </pitch>
         <duration>240</duration>
         <voice>1</voice>
         <type>half</type>
         <staff>1</staff>
      </note>
      <backup>
         <duration>480</duration>
      </backup>
      <note>
        <rest/>
         <duration>240</duration>
         <voice>2</voice>
         <type>half</type>
         <staff>2</staff>
      </note>
      <note attack="5" release="-5">
        <pitch>
          <step>E</step>
          <octave>3</octave>
        </pitch>
         <duration>240</duration>
         <voice>2</voice>
         <type>half</type>
         <staff>2</staff>
      </note>
      <note attack="5" release="-5">
        <chord/>
        <pitch>
          <step>B</step>
          <alter>-1</alter>
          <octave>3</octave>
        </pitch>
         <duration>240</duration>
         <voice>2</voice>
         <type>half</type>
         <staff>2</staff>
      </note>
      <note attack="5" release="-5">
        <chord/>
        <pitch>
          <step>C</step>
          <octave>4</octave>
        </pitch>
         <duration>240</duration>
         <voice>2</voice>
         <type>half</type>
         <staff>2</staff>
      </note>
   </measure>
   <measure number="13">
      <harmony>
         <root>
         <root-step>F</root-step>
         </root>
         <kind text="7">dominant</kind>
      </harmony>
      <note>
        <rest/>
         <duration>240</duration>
         <voice>1</voice>
         <type>half</type>
         <staff>1</staff>
      </note>
      <note>
        <rest/>
         <duration>60</duration>
         <voice>1</voice>
         <type>eighth</type>
         <staff>1</staff>
      </note>
      <note attack="26" release="-1">
        <pitch>
          <step>C</step>
          <octave>5</octave>
        </pitch>
         <duration>60</duration>
         <voice>1</voice>
         <type>eighth</type>
         <staff>1</staff>
      </note>
      <note>
        <rest/>
         <duration>120</duration>
         <voice>1</voice>
         <type>quarter</type>
         <staff>1</staff>
      </note>
      <backup>
         <duration>480</duration>
      </backup>
      <note release="19">
        <pitch>
          <step>E</step>
          <alter>-1</alter>
          <octave>3</octave>
        </pitch>
         <duration>60</duration>
         <voice>2</voice>
         <type>eighth</type>
        <accidental>flat</accidental> 
         <staff>2</staff>
      </note>
      <note attack="6" release="31">
        <chord/>
        <pitch>
          <step>F</step>
          <octave>3</octave>
        </pitch>
         <duration>60</duration>
         <voice>2</voice>
         <type>eighth</type>
        <accidental cautionary="yes">natural</accidental> 
         <staff>2</staff>
      </note>
      <note release="19">
        <chord/>
        <pitch>
          <step>A</step>
          <octave>3</octave>
        </pitch>
         <duration>60</duration>
         <voice>2</voice>
         <type>eighth</type>
         <staff>2</staff>
      </note>
      <note release="19">
        <chord/>
        <pitch>
          <step>C</step>
          <octave>4</octave>
        </pitch>
         <duration>60</duration>
         <voice>2</voice>
         <type>eighth</type>
         <staff>2</staff>
      </note>
      <note attack="33" release="-58">
        <pitch>
          <step>E</step>
          <alter>-1</alter>
          <octave>3</octave>
        </pitch>
         <duration>120</duration>
         <voice>2</voice>
         <type>quarter</type>
         <staff>2</staff>
      </note>
      <note attack="33" release="-58">
        <chord/>
        <pitch>
          <step>F</step>
          <octave>3</octave>
        </pitch>
         <duration>120</duration>
         <voice>2</voice>
         <type>quarter</type>
         <staff>2</staff>
      </note>
      <note attack="33" release="-58">
        <chord/>
        <pitch>
          <step>A</step>
          <octave>3</octave>
        </pitch>
         <duration>120</duration>
         <voice>2</voice>
         <type>quarter</type>
         <staff>2</staff>
      </note>
      <note attack="33" release="-58">
        <chord/>
        <pitch>
          <step>C</step>
          <octave>4</octave>
        </pitch>
         <duration>120</duration>
         <voice>2</voice>
         <type>quarter</type>
         <staff>2</staff>
      </note>
      <note attack="22">
        <pitch>
          <step>C</step>
          <octave>3</octave>
        </pitch>
         <duration>60</duration>
         <tie type="start"/>
         <voice>2</voice>
         <type>eighth</type>
         <staff>2</staff>
         <notations>
          <tied type="start"/>
          </notations>
      </note>
      <note release="-182">
        <pitch>
          <step>C</step>
          <octave>3</octave>
        </pitch>
         <duration>180</duration>
         <tie type="stop"/>
         <voice>2</voice>
         <type>quarter</type>
         <dot/>
         <staff>2</staff>
         <notations>
           <tied type="stop"/>
          </notations>
      </note>
      <note attack="20" release="-5">
        <pitch>
          <step>F</step>
          <octave>3</octave>
        </pitch>
         <duration>60</duration>
         <voice>2</voice>
         <type>eighth</type>
         <staff>2</staff>
      </note>
   </measure>
   <measure number="14">
      <note>
        <pitch>
          <step>F</step>
          <octave>4</octave>
        </pitch>
         <duration>240</duration>
         <tie type="start"/>
         <voice>1</voice>
         <type>half</type>
         <staff>1</staff>
         <notations>
          <tied type="start"/>
          </notations>
      </note>
      <note>
        <chord/>
        <pitch>
          <step>C</step>
          <octave>4</octave>
        </pitch>
         <duration>240</duration>
         <tie type="start"/>
         <voice>1</voice>
         <type>half</type>
         <staff>1</staff>
         <notations>
          <tied type="start"/>
          </notations>
      </note>
      <note>
        <chord/>
        <pitch>
          <step>A</step>
          <octave>3</octave>
        </pitch>
         <duration>240</duration>
         <tie type="start"/>
         <voice>1</voice>
         <type>half</type>
         <staff>1</staff>
         <notations>
          <tied type="start"/>
          </notations>
      </note>
      <note release="-57">
        <pitch>
          <step>F</step>
          <octave>4</octave>
        </pitch>
         <duration>60</duration>
         <tie type="stop"/>
         <voice>1</voice>
         <type>eighth</type>
         <staff>1</staff>
         <notations>
           <tied type="stop"/>
          </notations>
      </note>
      <note release="-57">
        <chord/>
        <pitch>
          <step>C</step>
          <octave>4</octave>
        </pitch>
         <duration>60</duration>
         <tie type="stop"/>
         <voice>1</voice>
         <type>eighth</type>
         <staff>1</staff>
         <notations>
           <tied type="stop"/>
          </notations>
      </note>
      <note release="-57">
        <chord/>
        <pitch>
          <step>A</step>
          <octave>3</octave>
        </pitch>
         <duration>60</duration>
         <tie type="stop"/>
         <voice>1</voice>
         <type>eighth</type>
         <staff>1</staff>
         <notations>
           <tied type="stop"/>
          </notations>
      </note>
      <note attack="26" release="-38">
        <pitch>
          <step>F</step>
          <octave>4</octave>
        </pitch>
         <duration>180</duration>
         <voice>1</voice>
         <type>quarter</type>
         <dot/>
         <staff>1</staff>
      </note>
      <note attack="26" release="-38">
        <chord/>
        <pitch>
          <step>C</step>
          <octave>4</octave>
        </pitch>
         <duration>180</duration>
         <voice>1</voice>
         <type>quarter</type>
         <dot/>
         <staff>1</staff>
      </note>
      <note attack="26" release="-38">
        <chord/>
        <pitch>
          <step>A</step>
          <octave>3</octave>
        </pitch>
         <duration>180</duration>
         <voice>1</voice>
         <type>quarter</type>
         <dot/>
         <staff>1</staff>
      </note>
      <backup>
         <duration>480</duration>
      </backup>
      <note release="3">
        <pitch>
          <step>E</step>
          <alter>-1</alter>
          <octave>3</octave>
        </pitch>
         <duration>240</duration>
         <voice>2</voice>
         <type>half</type>
        <accidental>flat</accidental> 
         <staff>2</staff>
      </note>
      <note attack="6" release="-56">
        <chord/>
        <pitch>
          <step>F</step>
          <octave>3</octave>
        </pitch>
         <duration>240</duration>
         <voice>2</voice>
         <type>half</type>
         <staff>2</staff>
      </note>
      <note attack="3" release="21">
        <pitch>
          <step>F</step>
          <octave>3</octave>
        </pitch>
         <duration>60</duration>
         <voice>2</voice>
         <type>eighth</type>
         <staff>2</staff>
      </note>
      <note attack="26" release="-38">
        <pitch>
          <step>E</step>
          <alter>-1</alter>
          <octave>3</octave>
        </pitch>
         <duration>180</duration>
         <voice>2</voice>
         <type>quarter</type>
         <dot/>
         <staff>2</staff>
      </note>
  </measure>
  </part>
  <part id="P3">
   <measure number="1">
      <attributes>
        <divisions>120</divisions>
        <key>
           <fifths>-1</fifths>
        </key>
        <time>
           <beats>4</beats>
           <beat-type>4</beat-type>
            </time>
        <staves>2</staves>
        <clef number="1">
           <sign>G</sign>
           <line>2</line>
        </clef>
        <clef number="2">
           <sign>F</sign>
           <line>4</line>
        </clef>
      </attributes>
      <sound tempo="220"/>
      <forward>
         <duration>480</duration>
      </forward>
   </measure>
   <measure number="2">
      <note>
        <rest/>
         <duration>240</duration>
         <voice>1</voice>
         <type>half</type>
         <staff>1</staff>
      </note>
      <note>
        <rest/>
         <duration>120</duration>
         <voice>1</voice>
         <type>quarter</type>
         <staff>1</staff>
      </note>
      <note>
        <rest/>
         <duration>60</duration>
         <voice>1</voice>
         <type>eighth</type>
         <staff>1</staff>
      </note>
      <note attack="20" release="-8">
        <pitch>
          <step>C</step>
          <octave>3</octave>
        </pitch>
         <duration>60</duration>
         <voice>1</voice>
         <type>eighth</type>
         <staff>1</staff>
      </note>
      <backup>
         <duration>480</duration>
      </backup>
      <note>
        <rest/>
         <duration>480</duration>
         <voice>2</voice>
         <type>whole</type>
         <staff>2</staff>
      </note>
   </measure>
   <measure number="3">
      <harmony>
         <root>
         <root-step>F</root-step>
         </root>
         <kind text="7">dominant</kind>
      </harmony>
      <note release="4">
        <pitch>
          <step>F</step>
          <octave>3</octave>
        </pitch>
         <duration>60</duration>
         <voice>1</voice>
         <type>eighth</type>
         <staff>1</staff>
         <beam number="1">begin</beam>
      </note>
      <note attack="20" release="-8">
        <pitch>
          <step>G</step>
          <octave>3</octave>
        </pitch>
         <duration>60</duration>
         <voice>1</voice>
         <type>eighth</type>
         <staff>1</staff>
         <beam number="1">continue</beam>
      </note>
      <note release="4">
        <pitch>
          <step>A</step>
          <alter>-1</alter>
          <octave>3</octave>
        </pitch>
         <duration>60</duration>
         <voice>1</voice>
         <type>eighth</type>
        <accidental>flat</accidental> 
         <staff>1</staff>
         <beam number="1">continue</beam>
      </note>
      <note attack="20">
        <pitch>
          <step>A</step>
          <octave>3</octave>
        </pitch>
         <duration>60</duration>
         <tie type="start"/>
         <voice>1</voice>
         <type>eighth</type>
        <accidental>natural</accidental> 
         <staff>1</staff>
         <beam number="1">end</beam>
         <notations>
          <tied type="start"/>
          </notations>
      </note>
      <note release="5">
        <pitch>
          <step>A</step>
          <octave>3</octave>
        </pitch>
         <duration>60</duration>
         <tie type="stop"/>
         <voice>1</voice>
         <type>eighth</type>
         <staff>1</staff>
         <beam number="1">begin</beam>
         <notations>
           <tied type="stop"/>
          </notations>
      </note>
      <note attack="20" release="-8">
        <pitch>
          <step>C</step>
          <octave>3</octave>
        </pitch>
         <duration>60</duration>
         <voice>1</voice>
         <type>eighth</type>
         <staff>1</staff>
         <beam number="1">continue</beam>
      </note>
      <note release="4">
        <pitch>
          <step>F</step>
          <octave>3</octave>
        </pitch>
         <duration>60</duration>
         <voice>1</voice>
         <type>eighth</type>
         <staff>1</staff>
         <beam number="1">continue</beam>
      </note>
      <note attack="20" release="-8">
        <pitch>
          <step>G</step>
          <octave>3</octave>
        </pitch>
         <duration>60</duration>
         <voice>1</voice>
         <type>eighth</type>
         <staff>1</staff>
         <beam number="1">end</beam>
      </note>
      <backup>
         <duration>480</duration>
      </backup>
      <note>
        <rest/>
         <duration>480</duration>
         <voice>2</voice>
         <type>whole</type>
         <staff>2</staff>
      </note>
   </measure>
   <measure number="4">
      <harmony>
         <root>
         <root-step>B</root-step>
         <root-alter>-1</root-alter>
         </root>
         <kind text="7">dominant</kind>
      </harmony>
      <note release="4">
        <pitch>
          <step>A</step>
          <alter>-1</alter>
          <octave>3</octave>
        </pitch>
         <duration>60</duration>
         <voice>1</voice>
         <type>eighth</type>
        <accidental>flat</accidental> 
         <staff>1</staff>
         <beam number="1">begin</beam>
      </note>
      <note attack="20" release="-8">
        <pitch>
          <step>A</step>
          <octave>3</octave>
        </pitch>
         <duration>60</duration>
         <voice>1</voice>
         <type>eighth</type>
        <accidental>natural</accidental> 
         <staff>1</staff>
         <beam number="1">continue</beam>
      </note>
      <note release="4">
        <pitch>
          <step>B</step>
          <alter>-1</alter>
          <octave>3</octave>
        </pitch>
         <duration>60</duration>
         <voice>1</voice>
         <type>eighth</type>
         <staff>1</staff>
         <beam number="1">continue</beam>
      </note>
      <note attack="20">
        <pitch>
          <step>A</step>
          <alter>-1</alter>
          <octave>3</octave>
        </pitch>
         <duration>60</duration>
         <tie type="start"/>
         <voice>1</voice>
         <type>eighth</type>
        <accidental>flat</accidental> 
         <staff>1</staff>
         <beam number="1">end</beam>
         <notations>
          <tied type="start"/>
          </notations>
      </note>
      <note>
        <pitch>
          <step>A</step>
          <alter>-1</alter>
          <octave>3</octave>
        </pitch>
         <duration>180</duration>
         <tie type="stop"/>
         <voice>1</voice>
         <type>quarter</type>
         <dot/>
         <staff>1</staff>
         <notations>
           <tied type="stop"/>
          </notations>
      </note>
      <note attack="20" release="-8">
        <pitch>
          <step>C</step>
          <octave>3</octave>
        </pitch>
         <duration>60</duration>
         <voice>1</voice>
         <type>eighth</type>
         <staff>1</staff>
      </note>
      <backup>
         <duration>480</duration>
      </backup>
      <note>
        <rest/>
         <duration>480</duration>
         <voice>2</voice>
         <type>whole</type>
         <staff>2</staff>
      </note>
   </measure>
   <measure number="5">
      <harmony>
         <root>
         <root-step>F</root-step>
         </root>
         <kind text="7">dominant</kind>
      </harmony>
      <note release="4">
        <pitch>
          <step>F</step>
          <octave>3</octave>
        </pitch>
         <duration>60</duration>
         <voice>1</voice>
         <type>eighth</type>
         <staff>1</staff>
         <beam number="1">begin</beam>
      </note>
      <note attack="20" release="-8">
        <pitch>
          <step>G</step>
          <octave>3</octave>
        </pitch>
         <duration>60</duration>
         <voice>1</voice>
         <type>eighth</type>
         <staff>1</staff>
         <beam number="1">continue</beam>
      </note>
      <note release="4">
        <pitch>
          <step>A</step>
          <alter>-1</alter>
          <octave>3</octave>
        </pitch>
         <duration>60</duration>
         <voice>1</voice>
         <type>eighth</type>
        <accidental>flat</accidental> 
         <staff>1</staff>
         <beam number="1">continue</beam>
      </note>
      <note attack="20">
        <pitch>
          <step>A</step>
          <octave>3</octave>
        </pitch>
         <duration>60</duration>
         <tie type="start"/>
         <voice>1</voice>
         <type>eighth</type>
        <accidental>natural</accidental> 
         <staff>1</staff>
         <beam number="1">end</beam>
         <notations>
          <tied type="start"/>
          </notations>
      </note>
      <note release="1">
        <pitch>
          <step>A</step>
          <octave>3</octave>
        </pitch>
         <duration>60</duration>
         <tie type="stop"/>
         <voice>1</voice>
         <type>eighth</type>
         <staff>1</staff>
         <beam number="1">begin</beam>
         <notations>
           <tied type="stop"/>
          </notations>
      </note>
      <note attack="20" release="-8">
        <pitch>
          <step>C</step>
          <octave>3</octave>
        </pitch>
         <duration>60</duration>
         <voice>1</voice>
         <type>eighth</type>
         <staff>1</staff>
         <beam number="1">continue</beam>
      </note>
      <note release="4">
        <pitch>
          <step>F</step>
          <octave>3</octave>
        </pitch>
         <duration>60</duration>
         <voice>1</voice>
         <type>eighth</type>
         <staff>1</staff>
         <beam number="1">continue</beam>
      </note>
      <note attack="20" release="-8">
        <pitch>
          <step>G</step>
          <octave>3</octave>
        </pitch>
         <duration>60</duration>
         <voice>1</voice>
         <type>eighth</type>
         <staff>1</staff>
         <beam number="1">end</beam>
      </note>
      <backup>
         <duration>480</duration>
      </backup>
      <note>
        <rest/>
         <duration>480</duration>
         <voice>2</voice>
         <type>whole</type>
         <staff>2</staff>
      </note>
   </measure>
   <measure number="6">
      <note release="4">
        <pitch>
          <step>A</step>
          <alter>-1</alter>
          <octave>3</octave>
        </pitch>
         <duration>60</duration>
         <voice>1</voice>
         <type>eighth</type>
        <accidental>flat</accidental> 
         <staff>1</staff>
         <beam number="1">begin</beam>
      </note>
      <note attack="20" release="-8">
        <pitch>
          <step>A</step>
          <octave>3</octave>
        </pitch>
         <duration>60</duration>
         <voice>1</voice>
         <type>eighth</type>
        <accidental>natural</accidental> 
         <staff>1</staff>
         <beam number="1">continue</beam>
      </note>
      <note release="4">
        <pitch>
          <step>B</step>
          <alter>-1</alter>
          <octave>3</octave>
        </pitch>
         <duration>60</duration>
         <voice>1</voice>
         <type>eighth</type>
         <staff>1</staff>
         <beam number="1">continue</beam>
      </note>
      <note attack="20" release="-8">
        <pitch>
          <step>C</step>
          <octave>3</octave>
        </pitch>
         <duration>60</duration>
         <voice>1</voice>
         <type>eighth</type>
         <staff>1</staff>
         <beam number="1">end</beam>
      </note>
      <note release="4">
        <pitch>
          <step>F</step>
          <octave>3</octave>
        </pitch>
         <duration>60</duration>
         <voice>1</voice>
         <type>eighth</type>
         <staff>1</staff>
         <beam number="1">begin</beam>
      </note>
      <note attack="20" release="-8">
        <pitch>
          <step>G</step>
          <octave>3</octave>
        </pitch>
         <duration>60</duration>
         <voice>1</voice>
         <type>eighth</type>
         <staff>1</staff>
         <beam number="1">end</beam>
      </note>
      <note release="-56">
        <pitch>
          <step>A</step>
          <alter>-1</alter>
          <octave>3</octave>
        </pitch>
         <duration>120</duration>
         <voice>1</voice>
         <type>quarter</type>
        <accidental>flat</accidental> 
         <staff>1</staff>
      </note>
      <backup>
         <duration>480</duration>
      </backup>
      <note>
        <rest/>
         <duration>480</duration>
         <voice>2</voice>
         <type>whole</type>
         <staff>2</staff>
      </note>
   </measure>
   <measure number="7">
      <harmony>
         <root>
         <root-step>B</root-step>
         <root-alter>-1</root-alter>
         </root>
         <kind text="7">dominant</kind>
      </harmony>
      <note>
        <rest/>
         <duration>60</duration>
         <voice>1</voice>
         <type>eighth</type>
         <staff>1</staff>
      </note>
      <note attack="20" release="-8">
        <pitch>
          <step>C</step>
          <octave>3</octave>
        </pitch>
         <duration>60</duration>
         <voice>1</voice>
         <type>eighth</type>
         <staff>1</staff>
      </note>
      <note release="4">
        <pitch>
          <step>F</step>
          <octave>3</octave>
        </pitch>
         <duration>60</duration>
         <voice>1</voice>
         <type>eighth</type>
         <staff>1</staff>
         <beam number="1">begin</beam>
      </note>
      <note attack="20" release="-8">
        <pitch>
          <step>G</step>
          <octave>3</octave>
        </pitch>
         <duration>60</duration>
         <voice>1</voice>
         <type>eighth</type>
         <staff>1</staff>
         <beam number="1">end</beam>
      </note>
      <note release="4">
        <pitch>
          <step>A</step>
          <alter>-1</alter>
          <octave>3</octave>
        </pitch>
         <duration>60</duration>
         <voice>1</voice>
         <type>eighth</type>
        <accidental>flat</accidental> 
         <staff>1</staff>
         <beam number="1">begin</beam>
      </note>
      <note attack="20" release="-8">
        <pitch>
          <step>A</step>
          <octave>3</octave>
        </pitch>
         <duration>60</duration>
         <voice>1</voice>
         <type>eighth</type>
        <accidental>natural</accidental> 
         <staff>1</staff>
         <beam number="1">continue</beam>
      </note>
      <note release="4">
        <pitch>
          <step>B</step>
          <alter>-1</alter>
          <octave>3</octave>
        </pitch>
         <duration>60</duration>
         <voice>1</voice>
         <type>eighth</type>
         <staff>1</staff>
         <beam number="1">continue</beam>
      </note>
      <note attack="20">
        <pitch>
          <step>A</step>
          <alter>-1</alter>
          <octave>3</octave>
        </pitch>
         <duration>60</duration>
         <tie type="start"/>
         <voice>1</voice>
         <type>eighth</type>
        <accidental>flat</accidental> 
         <staff>1</staff>
         <beam number="1">end</beam>
         <notations>
          <tied type="start"/>
          </notations>
      </note>
      <backup>
         <duration>480</duration>
      </backup>
      <note>
        <rest/>
         <duration>480</duration>
         <voice>2</voice>
         <type>whole</type>
         <staff>2</staff>
      </note>
   </measure>
   <measure number="8">
      <note release="-24">
        <pitch>
          <step>A</step>
          <alter>-1</alter>
          <octave>3</octave>
        </pitch>
         <duration>480</duration>
         <tie type="stop"/>
         <voice>1</voice>
         <type>whole</type>
         <staff>1</staff>
         <notations>
           <tied type="stop"/>
          </notations>
      </note>
      <backup>
         <duration>480</duration>
      </backup>
      <note>
        <rest/>
         <duration>480</duration>
         <voice>2</voice>
         <type>whole</type>
         <staff>2</staff>
      </note>
   </measure>
   <measure number="9">
      <harmony>
         <root>
         <root-step>F</root-step>
         </root>
         <kind text="7">dominant</kind>
      </harmony>
      <note>
        <rest/>
         <duration>60</duration>
         <voice>1</voice>
         <type>eighth</type>
         <staff>1</staff>
      </note>
      <note attack="20" release="-8">
        <pitch>
          <step>C</step>
          <octave>3</octave>
        </pitch>
         <duration>60</duration>
         <voice>1</voice>
         <type>eighth</type>
         <staff>1</staff>
      </note>
      <note release="4">
        <pitch>
          <step>F</step>
          <octave>3</octave>
        </pitch>
         <duration>60</duration>
         <voice>1</voice>
         <type>eighth</type>
         <staff>1</staff>
         <beam number="1">begin</beam>
      </note>
      <note attack="20" release="-8">
        <pitch>
          <step>G</step>
          <octave>3</octave>
        </pitch>
         <duration>60</duration>
         <voice>1</voice>
         <type>eighth</type>
         <staff>1</staff>
         <beam number="1">end</beam>
      </note>
      <note release="4">
        <pitch>
          <step>A</step>
          <alter>-1</alter>
          <octave>3</octave>
        </pitch>
         <duration>60</duration>
         <voice>1</voice>
         <type>eighth</type>
        <accidental>flat</accidental> 
         <staff>1</staff>
      </note>
      <note attack="20" release="-4">
        <pitch>
          <step>A</step>
          <octave>3</octave>
        </pitch>
         <duration>120</duration>
         <voice>1</voice>
         <type>quarter</type>
        <accidental>natural</accidental> 
         <staff>1</staff>
      </note>
      <note attack="20" release="-8">
        <pitch>
          <step>C</step>
          <octave>3</octave>
        </pitch>
         <duration>60</duration>
         <voice>1</voice>
         <type>eighth</type>
         <staff>1</staff>
      </note>
      <backup>
         <duration>480</duration>
      </backup>
      <note>
        <rest/>
         <duration>480</duration>
         <voice>2</voice>
         <type>whole</type>
         <staff>2</staff>
      </note>
   </measure>
   <measure number="10">
      <harmony>
         <root>
         <root-step>A</root-step>
         </root>
         <kind text="m7">minor-seventh</kind>
      </harmony>
      <note release="4">
        <pitch>
          <step>F</step>
          <octave>3</octave>
        </pitch>
         <duration>60</duration>
         <voice>1</voice>
         <type>eighth</type>
         <staff>1</staff>
         <beam number="1">begin</beam>
      </note>
      <note attack="20" release="-8">
        <pitch>
          <step>G</step>
          <octave>3</octave>
        </pitch>
         <duration>60</duration>
         <voice>1</voice>
         <type>eighth</type>
         <staff>1</staff>
         <beam number="1">continue</beam>
      </note>
      <note release="4">
        <pitch>
          <step>G</step>
          <alter>1</alter>
          <octave>3</octave>
        </pitch>
         <duration>60</duration>
         <voice>1</voice>
         <type>eighth</type>
        <accidental>sharp</accidental> 
         <staff>1</staff>
         <beam number="1">continue</beam>
      </note>
      <note attack="20">
        <pitch>
          <step>A</step>
          <octave>3</octave>
        </pitch>
         <duration>60</duration>
         <tie type="start"/>
         <voice>1</voice>
         <type>eighth</type>
         <staff>1</staff>
         <beam number="1">end</beam>
         <notations>
          <tied type="start"/>
          </notations>
      </note>
      <harmony>
         <root>
         <root-step>D</root-step>
         </root>
         <kind text="7">dominant</kind>
      </harmony>
      <note release="-4">
        <pitch>
          <step>A</step>
          <octave>3</octave>
        </pitch>
         <duration>60</duration>
         <tie type="stop"/>
         <voice>1</voice>
         <type>eighth</type>
         <staff>1</staff>
         <beam number="1">begin</beam>
         <notations>
           <tied type="stop"/>
          </notations>
      </note>
      <note attack="20" release="-8">
        <pitch>
          <step>C</step>
          <octave>3</octave>
        </pitch>
         <duration>60</duration>
         <voice>1</voice>
         <type>eighth</type>
         <staff>1</staff>
         <beam number="1">continue</beam>
      </note>
      <note release="4">
        <pitch>
          <step>F</step>
          <octave>3</octave>
        </pitch>
         <duration>60</duration>
         <voice>1</voice>
         <type>eighth</type>
         <staff>1</staff>
         <beam number="1">continue</beam>
      </note>
      <note attack="20" release="-8">
        <pitch>
          <step>G</step>
          <octave>3</octave>
        </pitch>
         <duration>60</duration>
         <voice>1</voice>
         <type>eighth</type>
        <accidental>natural</accidental> 
         <staff>1</staff>
         <beam number="1">end</beam>
      </note>
      <backup>
         <duration>480</duration>
      </backup>
      <note>
        <rest/>
         <duration>480</duration>
         <voice>2</voice>
         <type>whole</type>
         <staff>2</staff>
      </note>
   </measure>
   <measure number="11">
      <harmony>
         <root>
         <root-step>G</root-step>
         </root>
         <kind text="m7">minor-seventh</kind>
      </harmony>
      <note release="4">
        <pitch>
          <step>A</step>
          <alter>-1</alter>
          <octave>3</octave>
        </pitch>
         <duration>60</duration>
         <voice>1</voice>
         <type>eighth</type>
        <accidental>flat</accidental> 
         <staff>1</staff>
         <beam number="1">begin</beam>
      </note>
      <note attack="20" release="-8">
        <pitch>
          <step>A</step>
          <octave>3</octave>
        </pitch>
         <duration>60</duration>
         <voice>1</voice>
         <type>eighth</type>
        <accidental>natural</accidental> 
         <staff>1</staff>
         <beam number="1">continue</beam>
      </note>
      <note release="4">
        <pitch>
          <step>B</step>
          <alter>-1</alter>
          <octave>3</octave>
        </pitch>
         <duration>60</duration>
         <voice>1</voice>
         <type>eighth</type>
         <staff>1</staff>
         <beam number="1">continue</beam>
      </note>
      <note attack="20" release="-8">
        <pitch>
          <step>C</step>
          <octave>3</octave>
        </pitch>
         <duration>60</duration>
         <voice>1</voice>
         <type>eighth</type>
         <staff>1</staff>
         <beam number="1">end</beam>
      </note>
      <note release="4">
        <pitch>
          <step>C</step>
          <alter>1</alter>
          <octave>3</octave>
        </pitch>
         <duration>60</duration>
         <voice>1</voice>
         <type>eighth</type>
        <accidental>sharp</accidental> 
         <staff>1</staff>
         <beam number="1">begin</beam>
      </note>
      <note attack="20" release="-8">
        <pitch>
          <step>D</step>
          <octave>3</octave>
        </pitch>
         <duration>60</duration>
         <voice>1</voice>
         <type>eighth</type>
         <staff>1</staff>
         <beam number="1">continue</beam>
      </note>
      <note release="4">
        <pitch>
          <step>E</step>
          <alter>-1</alter>
          <octave>3</octave>
        </pitch>
         <duration>60</duration>
         <voice>1</voice>
         <type>eighth</type>
        <accidental>flat</accidental> 
         <staff>1</staff>
         <beam number="1">continue</beam>
      </note>
      <note attack="20">
        <pitch>
          <step>E</step>
          <octave>3</octave>
        </pitch>
         <duration>60</duration>
         <tie type="start"/>
         <voice>1</voice>
         <type>eighth</type>
        <accidental>natural</accidental> 
         <staff>1</staff>
         <beam number="1">end</beam>
         <notations>
          <tied type="start"/>
          </notations>
      </note>
      <backup>
         <duration>480</duration>
      </backup>
      <note>
        <rest/>
         <duration>480</duration>
         <voice>2</voice>
         <type>whole</type>
         <staff>2</staff>
      </note>
   </measure>
   <measure number="12">
      <harmony>
         <root>
         <root-step>C</root-step>
         </root>
         <kind text="7">dominant</kind>
      </harmony>
      <note release="-4">
        <pitch>
          <step>E</step>
          <octave>3</octave>
        </pitch>
         <duration>60</duration>
         <tie type="stop"/>
         <voice>1</voice>
         <type>eighth</type>
         <staff>1</staff>
         <beam number="1">begin</beam>
         <notations>
           <tied type="stop"/>
          </notations>
      </note>
      <note attack="20" release="-8">
        <pitch>
          <step>F</step>
          <octave>3</octave>
        </pitch>
         <duration>60</duration>
         <voice>1</voice>
         <type>eighth</type>
         <staff>1</staff>
         <beam number="1">continue</beam>
      </note>
      <note release="4">
        <pitch>
          <step>F</step>
          <alter>1</alter>
          <octave>3</octave>
        </pitch>
         <duration>60</duration>
         <voice>1</voice>
         <type>eighth</type>
        <accidental>sharp</accidental> 
         <staff>1</staff>
         <beam number="1">continue</beam>
      </note>
      <note attack="20" release="-8">
        <pitch>
          <step>G</step>
          <octave>3</octave>
        </pitch>
         <duration>60</duration>
         <voice>1</voice>
         <type>eighth</type>
         <staff>1</staff>
         <beam number="1">end</beam>
      </note>
      <note release="4">
        <pitch>
          <step>A</step>
          <alter>-1</alter>
          <octave>3</octave>
        </pitch>
         <duration>60</duration>
         <voice>1</voice>
         <type>eighth</type>
        <accidental>flat</accidental> 
         <staff>1</staff>
         <beam number="1">begin</beam>
      </note>
      <note attack="20" release="-8">
        <pitch>
          <step>A</step>
          <octave>3</octave>
        </pitch>
         <duration>60</duration>
         <voice>1</voice>
         <type>eighth</type>
        <accidental>natural</accidental> 
         <staff>1</staff>
         <beam number="1">continue</beam>
      </note>
      <note release="4">
        <pitch>
          <step>B</step>
          <alter>-1</alter>
          <octave>3</octave>
        </pitch>
         <duration>60</duration>
         <voice>1</voice>
         <type>eighth</type>
         <staff>1</staff>
         <beam number="1">continue</beam>
      </note>
      <note attack="20" release="-8">
        <pitch>
          <step>C</step>
          <octave>3</octave>
        </pitch>
         <duration>60</duration>
         <voice>1</voice>
         <type>eighth</type>
        <accidental cautionary="yes">natural</accidental> 
         <staff>1</staff>
         <beam number="1">end</beam>
      </note>
      <backup>
         <duration>480</duration>
      </backup>
      <note>
        <rest/>
         <duration>480</duration>
         <voice>2</voice>
         <type>whole</type>
         <staff>2</staff>
      </note>
   </measure>
   <measure number="13">
      <harmony>
         <root>
         <root-step>F</root-step>
         </root>
         <kind text="7">dominant</kind>
      </harmony>
      <note release="4">
        <pitch>
          <step>F</step>
          <octave>3</octave>
        </pitch>
         <duration>60</duration>
         <voice>1</voice>
         <type>eighth</type>
        <accidental cautionary="yes">natural</accidental> 
         <staff>1</staff>
         <beam number="1">begin</beam>
      </note>
      <note attack="20" release="-8">
        <pitch>
          <step>G</step>
          <octave>3</octave>
        </pitch>
         <duration>60</duration>
         <voice>1</voice>
         <type>eighth</type>
         <staff>1</staff>
         <beam number="1">continue</beam>
      </note>
      <note release="4">
        <pitch>
          <step>A</step>
          <alter>-1</alter>
          <octave>3</octave>
        </pitch>
         <duration>60</duration>
         <voice>1</voice>
         <type>eighth</type>
        <accidental>flat</accidental> 
         <staff>1</staff>
         <beam number="1">continue</beam>
      </note>
      <note attack="20">
        <pitch>
          <step>A</step>
          <octave>3</octave>
        </pitch>
         <duration>60</duration>
         <tie type="start"/>
         <voice>1</voice>
         <type>eighth</type>
        <accidental>natural</accidental> 
         <staff>1</staff>
         <beam number="1">end</beam>
         <notations>
          <tied type="start"/>
          </notations>
      </note>
      <note>
        <pitch>
          <step>A</step>
          <octave>3</octave>
        </pitch>
         <duration>240</duration>
         <tie type="stop"/>
         <tie type="start"/>
         <voice>1</voice>
         <type>half</type>
         <staff>1</staff>
         <notations>
           <tied type="stop"/>
          <tied type="start"/>
          </notations>
      </note>
      <backup>
         <duration>480</duration>
      </backup>
      <note>
        <rest/>
         <duration>480</duration>
         <voice>2</voice>
         <type>whole</type>
         <staff>2</staff>
      </note>
   </measure>
   <measure number="14">
      <note release="-25">
        <pitch>
          <step>A</step>
          <octave>3</octave>
        </pitch>
         <duration>480</duration>
         <tie type="stop"/>
         <voice>1</voice>
         <type>whole</type>
         <staff>1</staff>
         <notations>
           <tied type="stop"/>
          </notations>
      </note>
      <backup>
         <duration>480</duration>
      </backup>
      <note>
        <rest/>
         <duration>480</duration>
         <voice>2</voice>
         <type>whole</type>
         <staff>2</staff>
      </note>
  </measure>
  </part>
  <part id="P4">
   <measure number="1">
      <attributes>
        <divisions>120</divisions>
        <key>
           <fifths>-1</fifths>
        </key>
        <time>
           <beats>4</beats>
           <beat-type>4</beat-type>
            </time>
        <staves>2</staves>
        <clef number="1">
           <sign>G</sign>
           <line>2</line>
        </clef>
        <clef number="2">
           <sign>F</sign>
           <line>4</line>
        </clef>
      </attributes>
      <sound tempo="220"/>
      <forward>
         <duration>480</duration>
      </forward>
   </measure>
   <measure number="2">
      <forward>
         <duration>480</duration>
      </forward>
   </measure>
   <measure number="3">
      <harmony>
         <root>
         <root-step>F</root-step>
         </root>
         <kind text="7">dominant</kind>
      </harmony>
      <note>
        <rest/>
         <duration>480</duration>
         <voice>1</voice>
         <type>whole</type>
         <staff>1</staff>
      </note>
      <backup>
         <duration>480</duration>
      </backup>
      <note>
        <rest/>
         <duration>480</duration>
         <voice>2</voice>
         <type>whole</type>
         <staff>2</staff>
      </note>
   </measure>
   <measure number="4">
      <harmony>
         <root>
         <root-step>B</root-step>
         <root-alter>-1</root-alter>
         </root>
         <kind text="7">dominant</kind>
      </harmony>
      <note>
        <rest/>
         <duration>480</duration>
         <voice>1</voice>
         <type>whole</type>
         <staff>1</staff>
      </note>
      <backup>
         <duration>480</duration>
      </backup>
      <note>
        <rest/>
         <duration>480</duration>
         <voice>2</voice>
         <type>whole</type>
         <staff>2</staff>
      </note>
   </measure>
   <measure number="5">
      <harmony>
         <root>
         <root-step>F</root-step>
         </root>
         <kind text="7">dominant</kind>
      </harmony>
      <note>
        <rest/>
         <duration>480</duration>
         <voice>1</voice>
         <type>whole</type>
         <staff>1</staff>
      </note>
      <backup>
         <duration>480</duration>
      </backup>
      <note>
        <rest/>
         <duration>480</duration>
         <voice>2</voice>
         <type>whole</type>
         <staff>2</staff>
      </note>
   </measure>
   <measure number="6">
      <note>
        <rest/>
         <duration>480</duration>
         <voice>1</voice>
         <type>whole</type>
         <staff>1</staff>
      </note>
      <backup>
         <duration>480</duration>
      </backup>
      <note>
        <rest/>
         <duration>480</duration>
         <voice>2</voice>
         <type>whole</type>
         <staff>2</staff>
      </note>
   </measure>
   <measure number="7">
      <harmony>
         <root>
         <root-step>B</root-step>
         <root-alter>-1</root-alter>
         </root>
         <kind text="7">dominant</kind>
      </harmony>
      <note>
        <rest/>
         <duration>480</duration>
         <voice>1</voice>
         <type>whole</type>
         <staff>1</staff>
      </note>
      <backup>
         <duration>480</duration>
      </backup>
      <note>
        <rest/>
         <duration>480</duration>
         <voice>2</voice>
         <type>whole</type>
         <staff>2</staff>
      </note>
   </measure>
   <measure number="8">
      <note>
        <rest/>
         <duration>480</duration>
         <voice>1</voice>
         <type>whole</type>
         <staff>1</staff>
      </note>
      <backup>
         <duration>480</duration>
      </backup>
      <note>
        <rest/>
         <duration>480</duration>
         <voice>2</voice>
         <type>whole</type>
         <staff>2</staff>
      </note>
   </measure>
   <measure number="9">
      <harmony>
         <root>
         <root-step>F</root-step>
         </root>
         <kind text="7">dominant</kind>
      </harmony>
      <note>
        <rest/>
         <duration>480</duration>
         <voice>1</voice>
         <type>whole</type>
         <staff>1</staff>
      </note>
      <backup>
         <duration>480</duration>
      </backup>
      <note>
        <rest/>
         <duration>480</duration>
         <voice>2</voice>
         <type>whole</type>
         <staff>2</staff>
      </note>
   </measure>
   <measure number="10">
      <harmony>
         <root>
         <root-step>A</root-step>
         </root>
         <kind text="m7">minor-seventh</kind>
      </harmony>
      <note>
        <rest/>
         <duration>480</duration>
         <voice>1</voice>
         <type>whole</type>
         <staff>1</staff>
      </note>
      <harmony>
         <root>
         <root-step>D</root-step>
         </root>
         <kind text="7">dominant</kind>
      <offset>-240</offset>
      </harmony>
      <backup>
         <duration>480</duration>
      </backup>
      <note>
        <rest/>
         <duration>480</duration>
         <voice>2</voice>
         <type>whole</type>
         <staff>2</staff>
      </note>
   </measure>
   <measure number="11">
      <harmony>
         <root>
         <root-step>G</root-step>
         </root>
         <kind text="m7">minor-seventh</kind>
      </harmony>
      <note>
        <rest/>
         <duration>480</duration>
         <voice>1</voice>
         <type>whole</type>
         <staff>1</staff>
      </note>
      <backup>
         <duration>480</duration>
      </backup>
      <note>
        <rest/>
         <duration>480</duration>
         <voice>2</voice>
         <type>whole</type>
         <staff>2</staff>
      </note>
   </measure>
   <measure number="12">
      <harmony>
         <root>
         <root-step>C</root-step>
         </root>
         <kind text="7">dominant</kind>
      </harmony>
      <note>
        <rest/>
         <duration>480</duration>
         <voice>1</voice>
         <type>whole</type>
         <staff>1</staff>
      </note>
      <backup>
         <duration>480</duration>
      </backup>
      <note>
        <rest/>
         <duration>480</duration>
         <voice>2</voice>
         <type>whole</type>
         <staff>2</staff>
      </note>
   </measure>
   <measure number="13">
      <harmony>
         <root>
         <root-step>F</root-step>
         </root>
         <kind text="7">dominant</kind>
      </harmony>
      <note>
        <rest/>
         <duration>480</duration>
         <voice>1</voice>
         <type>whole</type>
         <staff>1</staff>
      </note>
      <backup>
         <duration>480</duration>
      </backup>
      <note>
        <rest/>
         <duration>480</duration>
         <voice>2</voice>
         <type>whole</type>
         <staff>2</staff>
      </note>
   </measure>
   <measure number="14">
      <note>
        <rest/>
         <duration>480</duration>
         <voice>1</voice>
         <type>whole</type>
         <staff>1</staff>
      </note>
      <backup>
         <duration>480</duration>
      </backup>
      <note>
        <rest/>
         <duration>480</duration>
         <voice>2</voice>
         <type>whole</type>
         <staff>2</staff>
      </note>
  </measure>
  </part>
</score-partwise>
